# xmcd
#
# Track frame offsets:
#	180
#	12262
#	22537
#	35791
#	54562
#	69077
#	84044
#
# Disc length: 1300 seconds
#
# Revision: 1
# Processed by: cddbd v1.5.2PL0 Copyright (c) Steve Scherf et al.
# Submitted via: audiograbber 1.83.01
#
DISCID=41051207
DTITLE=Brenda - His love never dies
DYEAR=1900
DGENRE=Country
TTITLE0=A friend in need
TTITLE1=Let your light shine
TTITLE2=Read John
TTITLE3=I'd mention your name
TTITLE4=Sometimes he uses pain (to prove his love)
TTITLE5=His love never dies
TTITLE6=The way God sees me
EXTD=
EXTT0=
EXTT1=
EXTT2=
EXTT3=
EXTT4=
EXTT5=
EXTT6=
PLAYORDER=
